<svg xmlns="http://www.w3.org/2000/svg" viewBox="0 0 150.88 150.88"><defs><style>.cls-1{fill:none;}.cls-2{fill:#fff;}.cls-3{fill:#f9781a;}</style></defs><g id="レイヤー_2" data-name="レイヤー 2"><g id="レイヤー_1-2" data-name="レイヤー 1"><rect class="cls-1" width="150.88" height="150.88"/><path class="cls-2" d="M29.91,135.43v-.12a6.87,6.87,0,0,0-1.07-3.94l-.27-.42a6.86,6.86,0,0,0-5.78-3.18h-.53a6.85,6.85,0,0,1-6.85-6.85V15.18a6.85,6.85,0,0,1,6.85-6.85h92a6.78,6.78,0,0,1,2.32.4l.3.11c12.2,4.38,18.14,12.07,18.15,23.49.05,35.06,0,61.82,0,86.78a22.82,22.82,0,0,1-12.36,20.65,25.55,25.55,0,0,1-4.57,1.86c-.43.15-.79.26-1.13.39l-.31.11a6.91,6.91,0,0,1-2.38.43H36.76A6.86,6.86,0,0,1,29.91,135.43Z"/><path class="cls-2" d="M31.3,119.14V24.56a21.9,21.9,0,0,1,2.25-.25q37,0,74.06,0a11,11,0,0,1,10.26,5.9,10.47,10.47,0,0,1-.34,11.1c-2.37,3.79-6,5.25-10.38,5.24q-28.2,0-56.39,0h-12v3.19q0,40.55,0,81.07m.46-92c.75,0,1.18.09,1.61.09h66.48c.44,0,.87,0,1.3,0a3.15,3.15,0,0,0,3.1-3.22A3.3,3.3,0,0,0,108.75,32a12,12,0,0,0-2.08-.09H41.49c-.75,0-1.49.11-2.3.17Z"/><path class="cls-3" d="M24.06,17H114c8.75,3.15,12.43,7.59,12.44,15.38q.06,43.38,0,86.75a14.24,14.24,0,0,1-7.88,13.1,33.56,33.56,0,0,1-4.55,1.72H38.62c0-1,.11-2.07.11-3.11q0-40.53,0-81.07V46.54h12q28.18,0,56.39,0c4.38,0,8-1.45,10.38-5.24a10.47,10.47,0,0,0,.34-11.1,11,11,0,0,0-10.26-5.9q-37,0-74.06,0a21.9,21.9,0,0,0-2.25.25v94.58H24.06Z"/><path class="cls-3" d="M39.19,38.82V32.07c.81-.06,1.55-.17,2.3-.17h65.18a12,12,0,0,1,2.08.09,3.3,3.3,0,0,1,2.93,3.67,3.15,3.15,0,0,1-3.1,3.22c-.43,0-.86,0-1.3,0H40.8C40.37,38.91,39.94,38.86,39.19,38.82Z"/><path class="cls-2" d="M116.85,137.64a8.82,8.82,0,0,1-6.32-15H88.65a8.83,8.83,0,0,1,0-17.65h21.88A8.82,8.82,0,0,1,123,92.49l15.59,15a8.82,8.82,0,0,1,0,12.72l-15.59,15A8.76,8.76,0,0,1,116.85,137.64Z"/><path class="cls-3" d="M135.38,110.77l-15.59-15a4.25,4.25,0,0,0-5.89,6.12l8,7.68H88.65a4.25,4.25,0,1,0,0,8.49h33.24l-8,7.68a4.25,4.25,0,0,0,2.95,7.31,4.19,4.19,0,0,0,2.94-1.19l15.59-15a4.26,4.26,0,0,0,0-6.13Z"/></g></g></svg>