<svg xmlns="http://www.w3.org/2000/svg" viewBox="0 0 150.88 150.88"><defs><style>.cls-1{fill:none;}.cls-2{fill:#fff;}.cls-3{fill:#f9781a;}</style></defs><g id="レイヤー_2" data-name="レイヤー 2"><g id="レイヤー_1-2" data-name="レイヤー 1"><rect class="cls-1" width="150.88" height="150.88"/><path class="cls-2" d="M16.29,135.43v-.12a6.87,6.87,0,0,0-1.07-3.94L15,131a6.86,6.86,0,0,0-5.78-3.18H8.65a6.85,6.85,0,0,1-6.85-6.85V15.18A6.85,6.85,0,0,1,8.65,8.33h92a6.78,6.78,0,0,1,2.32.4l.3.11c12.2,4.38,18.14,12.07,18.15,23.49,0,35.06,0,61.82,0,86.78a22.82,22.82,0,0,1-12.36,20.65,25.55,25.55,0,0,1-4.57,1.86c-.43.15-.79.26-1.13.39l-.31.11a6.91,6.91,0,0,1-2.38.43H23.14A6.87,6.87,0,0,1,16.29,135.43Z"/><path class="cls-2" d="M17.68,119.14V24.56a21.9,21.9,0,0,1,2.25-.25q37,0,74.06,0a11,11,0,0,1,10.26,5.9,10.47,10.47,0,0,1-.34,11.1c-2.37,3.79-6,5.25-10.38,5.24q-28.2,0-56.39,0h-12v3.19q0,40.55,0,81.07m.46-92c.75,0,1.18.09,1.61.09H93.66c.44,0,.87,0,1.3,0a3.15,3.15,0,0,0,3.1-3.22A3.3,3.3,0,0,0,95.13,32a12,12,0,0,0-2.08-.09H27.87c-.75,0-1.49.11-2.3.17Z"/><path class="cls-3" d="M10.44,17h89.93c8.75,3.15,12.43,7.59,12.44,15.38q.06,43.38,0,86.75a14.22,14.22,0,0,1-7.88,13.1,33.56,33.56,0,0,1-4.55,1.72H25c0-1,.11-2.07.11-3.11q0-40.53,0-81.07V46.54h12q28.19,0,56.39,0c4.38,0,8-1.45,10.38-5.24a10.47,10.47,0,0,0,.34-11.1A11,11,0,0,0,94,24.31q-37,0-74.06,0a21.9,21.9,0,0,0-2.25.25v94.58H10.44Z"/><path class="cls-3" d="M25.57,38.82V32.07c.81-.06,1.55-.17,2.3-.17H93.05a12,12,0,0,1,2.08.09,3.3,3.3,0,0,1,2.93,3.67A3.15,3.15,0,0,1,95,38.88c-.43,0-.86,0-1.3,0H27.18C26.75,38.91,26.32,38.86,25.57,38.82Z"/><path class="cls-2" d="M86.63,140a11.2,11.2,0,0,1,0-22.39h37.83a4.32,4.32,0,0,0,2.9-.79,2,2,0,0,0,.5-1.38c0-.5,0-2-3.4-2H106.34a11.2,11.2,0,0,1,0-22.39h18.12c16.75,0,25.79,12.58,25.79,24.42a24.2,24.2,0,0,1-6.83,17c-3.36,3.45-9.37,7.57-19,7.57Z"/><path class="cls-2" d="M120.55,128.2a11.15,11.15,0,0,1-7.76-3.12L97.38,110.26a11.21,11.21,0,0,1,0-16.14l15.4-14.81a11.2,11.2,0,0,1,15.53,16.15l-7,6.73,7,6.74a11.2,11.2,0,0,1,.31,15.83A11.27,11.27,0,0,1,120.55,128.2Z"/><path class="cls-3" d="M120.55,121.2a4.18,4.18,0,0,1-2.91-1.17l-15.4-14.81a4.19,4.19,0,0,1,0-6l15.4-14.81a4.2,4.2,0,0,1,5.82,6L111.2,102.19,123.46,114a4.2,4.2,0,0,1,.11,5.94A4.16,4.16,0,0,1,120.55,121.2Z"/><path class="cls-3" d="M124.46,133H86.64a4.2,4.2,0,1,1,0-8.39h37.82a10.74,10.74,0,0,0,7.92-2.91,8.92,8.92,0,0,0,2.48-6.26c0-4.5-3.22-9-10.4-9H106.35a4.2,4.2,0,1,1,0-8.39h18.11c12.34,0,18.79,8.76,18.79,17.42a17.25,17.25,0,0,1-4.85,12.11C136,130,131.6,133,124.46,133Z"/></g></g></svg>