<svg xmlns="http://www.w3.org/2000/svg" viewBox="0 0 150.88 150.88"><defs><style>.cls-1,.cls-4{fill:none;}.cls-2{fill:#fff;}.cls-3{fill:#f9781a;}.cls-4{stroke:#fff;stroke-linecap:round;stroke-miterlimit:10;stroke-width:6px;}</style></defs><g id="レイヤー_2" data-name="レイヤー 2"><g id="レイヤー_1-2" data-name="レイヤー 1"><rect class="cls-1" width="150.88" height="150.88"/><circle class="cls-2" cx="118.86" cy="106.15" r="32.01"/><rect class="cls-2" x="0.86" y="12.72" width="118" height="121" rx="6.45"/><rect class="cls-3" x="8.84" y="20.33" width="10.87" height="105.77"/><rect class="cls-3" x="107.27" y="20.33" width="3.62" height="105.77"/><rect class="cls-3" x="51.06" y="20.33" width="3.62" height="105.77"/><rect class="cls-3" x="58.17" y="20.33" width="1.81" height="105.77"/><rect class="cls-3" x="102.6" y="20.33" width="1.81" height="105.77"/><rect class="cls-3" x="82.95" y="20.33" width="3.62" height="105.77"/><rect class="cls-3" x="21.76" y="20.33" width="3.62" height="105.77"/><rect class="cls-3" x="67.21" y="20.33" width="10.87" height="105.77"/><rect class="cls-3" x="35.73" y="20.33" width="10.87" height="105.77"/><rect class="cls-3" x="89.15" y="20.33" width="10.87" height="105.77"/><circle class="cls-2" cx="118.86" cy="106.15" r="29.01"/><circle class="cls-3" cx="118.86" cy="106.15" r="24.01"/><line class="cls-4" x1="118.86" y1="92.57" x2="118.86" y2="119.73"/><line class="cls-4" x1="104.36" y1="106.15" x2="133.36" y2="106.15"/></g></g></svg>