<svg xmlns="http://www.w3.org/2000/svg" viewBox="0 0 150.88 150.88"><defs><style>.cls-1,.cls-4{fill:none;}.cls-2{fill:#fff;}.cls-3{fill:#f9781a;}.cls-4{stroke:#fff;stroke-linecap:round;stroke-miterlimit:10;stroke-width:6px;}</style></defs><g id="レイヤー_2" data-name="レイヤー 2"><g id="レイヤー_1-2" data-name="レイヤー 1"><rect class="cls-1" width="150.88" height="150.88"/><circle class="cls-2" cx="114.52" cy="107.45" r="32.01"/><path class="cls-2" d="M18,135.43v-.12a6.79,6.79,0,0,0-1.06-3.94l-.27-.42a6.86,6.86,0,0,0-5.78-3.18h-.53a6.85,6.85,0,0,1-6.85-6.85V15.18a6.85,6.85,0,0,1,6.85-6.85h92a6.82,6.82,0,0,1,2.32.4l.29.11c12.2,4.38,18.14,12.07,18.16,23.49,0,35.06,0,61.82,0,86.78a22.82,22.82,0,0,1-12.36,20.65,25.55,25.55,0,0,1-4.57,1.86c-.43.15-.79.26-1.14.39l-.3.11a6.91,6.91,0,0,1-2.38.43H24.82A6.86,6.86,0,0,1,18,135.43Z"/><path class="cls-2" d="M19.36,119.14V24.56a21.6,21.6,0,0,1,2.25-.25q37,0,74.06,0a11,11,0,0,1,10.26,5.9,10.47,10.47,0,0,1-.35,11.1c-2.37,3.79-6,5.25-10.38,5.24q-28.19,0-56.39,0h-12V130.8m.46-92c.74,0,1.17.09,1.61.09H95.34c.43,0,.87,0,1.3,0a3.14,3.14,0,0,0,3.09-3.22A3.29,3.29,0,0,0,96.8,32a11.87,11.87,0,0,0-2.07-.09H29.54c-.74,0-1.49.11-2.29.17Z"/><path class="cls-3" d="M12.12,17h89.93c8.75,3.15,12.43,7.59,12.44,15.38q.06,43.38,0,86.75a14.24,14.24,0,0,1-7.88,13.1,33.56,33.56,0,0,1-4.55,1.72H26.67c0-1,.12-2.07.12-3.11V46.54h12q28.2,0,56.39,0c4.39,0,8-1.45,10.38-5.24a10.47,10.47,0,0,0,.35-11.1,11,11,0,0,0-10.26-5.9q-37,0-74.06,0a21.6,21.6,0,0,0-2.25.25v94.58H12.12Z"/><path class="cls-3" d="M27.25,38.82V32.07c.8-.06,1.55-.17,2.29-.17H94.73A11.87,11.87,0,0,1,96.8,32a3.29,3.29,0,0,1,2.93,3.67,3.14,3.14,0,0,1-3.09,3.22c-.43,0-.87,0-1.3,0H28.86C28.42,38.91,28,38.86,27.25,38.82Z"/><circle class="cls-2" cx="114.52" cy="107.45" r="29.01"/><circle class="cls-3" cx="114.52" cy="107.45" r="24.01"/><line class="cls-4" x1="114.52" y1="93.87" x2="114.52" y2="121.03"/><line class="cls-4" x1="100.02" y1="107.45" x2="129.02" y2="107.45"/></g></g></svg>