<svg xmlns="http://www.w3.org/2000/svg" viewBox="0 0 150.88 150.88"><defs><style>.cls-1,.cls-4{fill:none;}.cls-2{fill:#fff;}.cls-3{fill:#f9781a;}.cls-4{stroke:#fff;stroke-linecap:round;stroke-miterlimit:10;stroke-width:6px;}</style></defs><g id="レイヤー_2" data-name="レイヤー 2"><g id="レイヤー_1-2" data-name="レイヤー 1"><rect class="cls-1" width="150.88" height="150.88"/><circle class="cls-2" cx="109.89" cy="105.35" r="32.01"/><path class="cls-2" d="M30.9,139.19a22.12,22.12,0,0,1-16.52-7.28,21.32,21.32,0,0,1-5.25-16.84,53.89,53.89,0,0,1,2.72-10.87A68.91,68.91,0,0,1,27.48,77.85a55.73,55.73,0,0,1,12-9.49,8.95,8.95,0,0,1,9.42.08c4.78,3,9.32,4.4,13.89,4.4s9-1.41,13.78-4.32a9.15,9.15,0,0,1,9.68-.09,59.64,59.64,0,0,1,20.24,20.16,75.85,75.85,0,0,1,9.7,24.19A21.72,21.72,0,0,1,95,139.19H30.9Z"/><path class="cls-2" d="M62.67,84.38a36.35,36.35,0,0,1-.24-72.7h.29c20,0,36.35,16.08,36.46,35.85A36.2,36.2,0,0,1,62.94,84.38Z"/><path class="cls-3" d="M62.82,131.19H30.91A13.58,13.58,0,0,1,17.07,116a47.09,47.09,0,0,1,2.37-9.27A60.65,60.65,0,0,1,33.25,83.39a47.3,47.3,0,0,1,10.3-8.12,1,1,0,0,1,1.18,0q18,11.13,36.06.11a1.19,1.19,0,0,1,1.44,0A51.5,51.5,0,0,1,99.75,92.83a67.84,67.84,0,0,1,8.67,21.65A13.72,13.72,0,0,1,95,131.19Z"/><path class="cls-3" d="M62.88,76.38a28.35,28.35,0,0,1-.39-56.7c15.68-.12,28.61,12.45,28.69,27.89A28.3,28.3,0,0,1,62.88,76.38Z"/><circle class="cls-2" cx="109.89" cy="105.35" r="29.01"/><circle class="cls-3" cx="109.89" cy="105.35" r="24.01"/><line class="cls-4" x1="109.89" y1="91.78" x2="109.89" y2="118.93"/><line class="cls-4" x1="95.39" y1="105.35" x2="124.39" y2="105.35"/></g></g></svg>